<mxfile host="Electron" modified="2023-11-05T04:40:33.078Z" agent="Mozilla/5.0 (Macintosh; Intel Mac OS X 10_15_7) AppleWebKit/537.36 (KHTML, like Gecko) draw.io/22.0.3 Chrome/114.0.5735.289 Electron/25.8.4 Safari/537.36" etag="uOBgAa6uNQg1bGTDWHAj" version="22.0.3" type="device">
  <diagram name="Page-1" id="Qztnoe3S1tHAO9ui9pcU">
    <mxGraphModel dx="1114" dy="854" grid="1" gridSize="10" guides="1" tooltips="1" connect="1" arrows="1" fold="1" page="1" pageScale="1" pageWidth="827" pageHeight="1169" math="0" shadow="0">
      <root>
        <mxCell id="0" />
        <mxCell id="1" parent="0" />
        <mxCell id="-CvP_0sMCYbRgqIs7sml-3" value="" style="edgeStyle=orthogonalEdgeStyle;rounded=0;orthogonalLoop=1;jettySize=auto;html=1;" edge="1" parent="1" source="-CvP_0sMCYbRgqIs7sml-1" target="-CvP_0sMCYbRgqIs7sml-2">
          <mxGeometry relative="1" as="geometry" />
        </mxCell>
        <mxCell id="-CvP_0sMCYbRgqIs7sml-5" value="" style="edgeStyle=orthogonalEdgeStyle;rounded=0;orthogonalLoop=1;jettySize=auto;html=1;" edge="1" parent="1" source="-CvP_0sMCYbRgqIs7sml-1" target="-CvP_0sMCYbRgqIs7sml-4">
          <mxGeometry relative="1" as="geometry">
            <Array as="points">
              <mxPoint x="400" y="270" />
              <mxPoint x="400" y="270" />
            </Array>
          </mxGeometry>
        </mxCell>
        <mxCell id="-CvP_0sMCYbRgqIs7sml-7" value="" style="edgeStyle=orthogonalEdgeStyle;rounded=0;orthogonalLoop=1;jettySize=auto;html=1;" edge="1" parent="1" source="-CvP_0sMCYbRgqIs7sml-1" target="-CvP_0sMCYbRgqIs7sml-6">
          <mxGeometry relative="1" as="geometry" />
        </mxCell>
        <mxCell id="-CvP_0sMCYbRgqIs7sml-1" value="Home" style="rounded=1;whiteSpace=wrap;html=1;" vertex="1" parent="1">
          <mxGeometry x="340" y="150" width="120" height="60" as="geometry" />
        </mxCell>
        <mxCell id="-CvP_0sMCYbRgqIs7sml-2" value="About" style="rounded=1;whiteSpace=wrap;html=1;" vertex="1" parent="1">
          <mxGeometry x="90" y="280" width="120" height="60" as="geometry" />
        </mxCell>
        <mxCell id="-CvP_0sMCYbRgqIs7sml-4" value="Contact" style="whiteSpace=wrap;html=1;rounded=1;" vertex="1" parent="1">
          <mxGeometry x="340" y="280" width="120" height="60" as="geometry" />
        </mxCell>
        <mxCell id="-CvP_0sMCYbRgqIs7sml-6" value="Blogs" style="whiteSpace=wrap;html=1;rounded=1;" vertex="1" parent="1">
          <mxGeometry x="590" y="280" width="120" height="60" as="geometry" />
        </mxCell>
      </root>
    </mxGraphModel>
  </diagram>
</mxfile>
